<svg width="96" height="96" xmlns="http://www.w3.org/2000/svg">
 <title>Artboard 4</title>

 <g>
  <title>background</title>
  <rect fill="none" id="canvas_background" height="98" width="98" y="-1" x="-1"/>
 </g>
 <g>
  <title>Layer 1</title>
  <g id="svg_1">
   <path id="svg_2" d="m61.1055,56.2109c-7.4727,3.7344 -18.7383,3.7344 -26.211,0a2,2 0 0 0 -1.789,3.5782a33.8527,33.8527 0 0 0 14.8945,3.2363a33.8527,33.8527 0 0 0 14.8945,-3.2363a2,2 0 1 0 -1.789,-3.5782z"/>
   <path id="svg_3" d="m82,40l-2,0l0,-6a10.0117,10.0117 0 0 0 -10,-10l-6,0l0,-4.3684a6,6 0 1 0 -4,0l0,4.3684l-24,0l0,-4.3684a6,6 0 1 0 -4,0l0,4.3684l-6,0a10.0117,10.0117 0 0 0 -10,10l0,6l-2,0a6.0066,6.0066 0 0 0 -6,6l0,8a6.0066,6.0066 0 0 0 6,6l2,0l0,6a10.0117,10.0117 0 0 0 10,10l10,0l0,10a1.999,1.999 0 0 0 3.1992,1.6l15.4668,-11.6l15.334,0a10.0117,10.0117 0 0 0 10,-10l0,-6l2,0a6.0066,6.0066 0 0 0 6,-6l0,-8a6.0066,6.0066 0 0 0 -6,-6zm-20,-28a2,2 0 1 1 -2,2a2.0014,2.0014 0 0 1 2,-2zm-28,0a2,2 0 1 1 -2,2a2.0014,2.0014 0 0 1 2,-2zm-20,44a2.0014,2.0014 0 0 1 -2,-2l0,-8a2.0014,2.0014 0 0 1 2,-2l2,0l0,12l-2,0zm62,10a6.0066,6.0066 0 0 1 -6,6l-16,0a1.9941,1.9941 0 0 0 -1.1992,0.4l-12.8008,9.6l0,-8a1.9988,1.9988 0 0 0 -2,-2l-12,0a6.0066,6.0066 0 0 1 -6,-6l0,-32a6.0066,6.0066 0 0 1 6,-6l44,0a6.0066,6.0066 0 0 1 6,6l0,32zm8,-12a2.0014,2.0014 0 0 1 -2,2l-2,0l0,-12l2,0a2.0014,2.0014 0 0 1 2,2l0,8z"/>
   <path id="svg_4" d="m34,44a1.9988,1.9988 0 0 0 2,-2c0,-1.3789 4,-1.3789 4,0a2,2 0 0 0 4,0c0,-2.8965 -2.5234,-5 -6,-5s-6,2.1035 -6,5a1.9988,1.9988 0 0 0 2,2z"/>
   <path id="svg_5" d="m58,37c-3.4766,0 -6,2.1035 -6,5a2,2 0 0 0 4,0c0,-1.3789 4,-1.3789 4,0a2,2 0 0 0 4,0c0,-2.8965 -2.5234,-5 -6,-5z"/>
  </g>
 </g>
</svg>